<mxfile host="65bd71144e">
    <diagram id="mcmW1Wd7S0IDdAmtTYlX" name="Page-1">
        <mxGraphModel dx="738" dy="605" grid="1" gridSize="10" guides="1" tooltips="1" connect="1" arrows="1" fold="1" page="1" pageScale="1" pageWidth="900" pageHeight="1600" math="0" shadow="0">
            <root>
                <mxCell id="0"/>
                <mxCell id="1" parent="0"/>
                <mxCell id="2" value="" style="shape=table;html=1;whiteSpace=wrap;startSize=0;container=1;collapsible=0;childLayout=tableLayout;fillColor=none;" vertex="1" parent="1">
                    <mxGeometry x="200" y="280" width="410" height="240" as="geometry"/>
                </mxCell>
                <mxCell id="3" value="" style="shape=partialRectangle;html=1;whiteSpace=wrap;collapsible=0;dropTarget=0;pointerEvents=0;fillColor=none;top=0;left=0;bottom=0;right=0;points=[[0,0.5],[1,0.5]];portConstraint=eastwest;" vertex="1" parent="2">
                    <mxGeometry width="410" height="40" as="geometry"/>
                </mxCell>
                <mxCell id="4" value="Admission Date" style="shape=partialRectangle;html=1;whiteSpace=wrap;connectable=0;fillColor=#e3c800;top=0;left=0;bottom=0;right=0;overflow=hidden;pointerEvents=1;fontColor=#000000;strokeColor=#B09500;perimeterSpacing=5;" vertex="1" parent="3">
                    <mxGeometry width="130" height="40" as="geometry">
                        <mxRectangle width="130" height="40" as="alternateBounds"/>
                    </mxGeometry>
                </mxCell>
                <mxCell id="5" value="10/6/2022" style="shape=partialRectangle;html=1;whiteSpace=wrap;connectable=0;fillColor=#e3c800;top=0;left=0;bottom=0;right=0;overflow=hidden;pointerEvents=1;fontColor=#000000;strokeColor=#B09500;perimeterSpacing=5;" vertex="1" parent="3">
                    <mxGeometry x="130" width="150" height="40" as="geometry">
                        <mxRectangle width="150" height="40" as="alternateBounds"/>
                    </mxGeometry>
                </mxCell>
                <mxCell id="6" value="" style="shape=partialRectangle;html=1;whiteSpace=wrap;connectable=0;fillColor=#e3c800;top=0;left=0;bottom=0;right=0;overflow=hidden;pointerEvents=1;fontColor=#000000;strokeColor=#B09500;perimeterSpacing=5;" vertex="1" parent="3">
                    <mxGeometry x="280" width="130" height="40" as="geometry">
                        <mxRectangle width="130" height="40" as="alternateBounds"/>
                    </mxGeometry>
                </mxCell>
                <mxCell id="7" value="" style="shape=partialRectangle;html=1;whiteSpace=wrap;collapsible=0;dropTarget=0;pointerEvents=0;fillColor=none;top=0;left=0;bottom=0;right=0;points=[[0,0.5],[1,0.5]];portConstraint=eastwest;" vertex="1" parent="2">
                    <mxGeometry y="40" width="410" height="40" as="geometry"/>
                </mxCell>
                <mxCell id="8" value="Diagnosis" style="shape=partialRectangle;html=1;whiteSpace=wrap;connectable=0;fillColor=#e3c800;top=0;left=0;bottom=0;right=0;overflow=hidden;pointerEvents=1;fontColor=#000000;strokeColor=#B09500;perimeterSpacing=5;" vertex="1" parent="7">
                    <mxGeometry width="130" height="40" as="geometry">
                        <mxRectangle width="130" height="40" as="alternateBounds"/>
                    </mxGeometry>
                </mxCell>
                <mxCell id="9" value="Acute rheumatic pericarditis" style="shape=partialRectangle;html=1;whiteSpace=wrap;connectable=0;fillColor=#e3c800;top=0;left=0;bottom=0;right=0;overflow=hidden;pointerEvents=1;fontColor=#000000;strokeColor=#B09500;perimeterSpacing=5;" vertex="1" parent="7">
                    <mxGeometry x="130" width="150" height="40" as="geometry">
                        <mxRectangle width="150" height="40" as="alternateBounds"/>
                    </mxGeometry>
                </mxCell>
                <mxCell id="10" value="" style="shape=partialRectangle;html=1;whiteSpace=wrap;connectable=0;fillColor=#e3c800;top=0;left=0;bottom=0;right=0;overflow=hidden;pointerEvents=1;fontColor=#000000;strokeColor=#B09500;perimeterSpacing=5;" vertex="1" parent="7">
                    <mxGeometry x="280" width="130" height="40" as="geometry">
                        <mxRectangle width="130" height="40" as="alternateBounds"/>
                    </mxGeometry>
                </mxCell>
                <mxCell id="11" value="" style="shape=partialRectangle;html=1;whiteSpace=wrap;collapsible=0;dropTarget=0;pointerEvents=0;fillColor=none;top=0;left=0;bottom=0;right=0;points=[[0,0.5],[1,0.5]];portConstraint=eastwest;" vertex="1" parent="2">
                    <mxGeometry y="80" width="410" height="40" as="geometry"/>
                </mxCell>
                <mxCell id="12" value="Diagnosis text" style="shape=partialRectangle;html=1;whiteSpace=wrap;connectable=0;fillColor=#e3c800;top=0;left=0;bottom=0;right=0;overflow=hidden;pointerEvents=1;fontColor=#000000;strokeColor=#B09500;perimeterSpacing=5;" vertex="1" parent="11">
                    <mxGeometry width="130" height="40" as="geometry">
                        <mxRectangle width="130" height="40" as="alternateBounds"/>
                    </mxGeometry>
                </mxCell>
                <mxCell id="13" value="xxxxxx" style="shape=partialRectangle;html=1;whiteSpace=wrap;connectable=0;fillColor=#e3c800;top=0;left=0;bottom=0;right=0;overflow=hidden;pointerEvents=1;fontColor=#000000;strokeColor=#B09500;perimeterSpacing=5;" vertex="1" parent="11">
                    <mxGeometry x="130" width="150" height="40" as="geometry">
                        <mxRectangle width="150" height="40" as="alternateBounds"/>
                    </mxGeometry>
                </mxCell>
                <mxCell id="14" value="" style="shape=partialRectangle;html=1;whiteSpace=wrap;connectable=0;fillColor=#e3c800;top=0;left=0;bottom=0;right=0;overflow=hidden;pointerEvents=1;fontColor=#000000;strokeColor=#B09500;perimeterSpacing=5;" vertex="1" parent="11">
                    <mxGeometry x="280" width="130" height="40" as="geometry">
                        <mxRectangle width="130" height="40" as="alternateBounds"/>
                    </mxGeometry>
                </mxCell>
                <mxCell id="15" value="" style="shape=partialRectangle;html=1;whiteSpace=wrap;collapsible=0;dropTarget=0;pointerEvents=0;fillColor=none;top=0;left=0;bottom=0;right=0;points=[[0,0.5],[1,0.5]];portConstraint=eastwest;" vertex="1" parent="2">
                    <mxGeometry y="120" width="410" height="40" as="geometry"/>
                </mxCell>
                <mxCell id="16" value="test1" style="shape=partialRectangle;html=1;whiteSpace=wrap;connectable=0;fillColor=#e3c800;top=0;left=0;bottom=0;right=0;overflow=hidden;pointerEvents=1;fontColor=#000000;strokeColor=#B09500;perimeterSpacing=5;" vertex="1" parent="15">
                    <mxGeometry width="130" height="40" as="geometry">
                        <mxRectangle width="130" height="40" as="alternateBounds"/>
                    </mxGeometry>
                </mxCell>
                <mxCell id="17" value="xxxxxx" style="shape=partialRectangle;html=1;whiteSpace=wrap;connectable=0;fillColor=#e3c800;top=0;left=0;bottom=0;right=0;overflow=hidden;pointerEvents=1;fontColor=#000000;strokeColor=#B09500;perimeterSpacing=5;" vertex="1" parent="15">
                    <mxGeometry x="130" width="150" height="40" as="geometry">
                        <mxRectangle width="150" height="40" as="alternateBounds"/>
                    </mxGeometry>
                </mxCell>
                <mxCell id="18" value="" style="shape=partialRectangle;html=1;whiteSpace=wrap;connectable=0;fillColor=#e3c800;top=0;left=0;bottom=0;right=0;overflow=hidden;pointerEvents=1;fontColor=#000000;strokeColor=#B09500;perimeterSpacing=5;" vertex="1" parent="15">
                    <mxGeometry x="280" width="130" height="40" as="geometry">
                        <mxRectangle width="130" height="40" as="alternateBounds"/>
                    </mxGeometry>
                </mxCell>
                <mxCell id="19" value="" style="shape=partialRectangle;html=1;whiteSpace=wrap;collapsible=0;dropTarget=0;pointerEvents=0;fillColor=none;top=0;left=0;bottom=0;right=0;points=[[0,0.5],[1,0.5]];portConstraint=eastwest;" vertex="1" parent="2">
                    <mxGeometry y="160" width="410" height="40" as="geometry"/>
                </mxCell>
                <mxCell id="20" value="test2" style="shape=partialRectangle;html=1;whiteSpace=wrap;connectable=0;fillColor=#e3c800;top=0;left=0;bottom=0;right=0;overflow=hidden;pointerEvents=1;fontColor=#000000;strokeColor=#B09500;perimeterSpacing=5;" vertex="1" parent="19">
                    <mxGeometry width="130" height="40" as="geometry">
                        <mxRectangle width="130" height="40" as="alternateBounds"/>
                    </mxGeometry>
                </mxCell>
                <mxCell id="21" value="xxxxxx" style="shape=partialRectangle;html=1;whiteSpace=wrap;connectable=0;fillColor=#e3c800;top=0;left=0;bottom=0;right=0;overflow=hidden;pointerEvents=1;fontColor=#000000;strokeColor=#B09500;perimeterSpacing=5;" vertex="1" parent="19">
                    <mxGeometry x="130" width="150" height="40" as="geometry">
                        <mxRectangle width="150" height="40" as="alternateBounds"/>
                    </mxGeometry>
                </mxCell>
                <mxCell id="22" value="" style="shape=partialRectangle;html=1;whiteSpace=wrap;connectable=0;fillColor=#e3c800;top=0;left=0;bottom=0;right=0;overflow=hidden;pointerEvents=1;fontColor=#000000;strokeColor=#B09500;perimeterSpacing=5;" vertex="1" parent="19">
                    <mxGeometry x="280" width="130" height="40" as="geometry">
                        <mxRectangle width="130" height="40" as="alternateBounds"/>
                    </mxGeometry>
                </mxCell>
                <mxCell id="23" value="" style="shape=partialRectangle;html=1;whiteSpace=wrap;collapsible=0;dropTarget=0;pointerEvents=0;fillColor=none;top=0;left=0;bottom=0;right=0;points=[[0,0.5],[1,0.5]];portConstraint=eastwest;" vertex="1" parent="2">
                    <mxGeometry y="200" width="410" height="40" as="geometry"/>
                </mxCell>
                <mxCell id="24" value="procedure" style="shape=partialRectangle;html=1;whiteSpace=wrap;connectable=0;fillColor=#e3c800;top=0;left=0;bottom=0;right=0;overflow=hidden;pointerEvents=1;fontColor=#000000;strokeColor=#B09500;perimeterSpacing=5;" vertex="1" parent="23">
                    <mxGeometry width="130" height="40" as="geometry">
                        <mxRectangle width="130" height="40" as="alternateBounds"/>
                    </mxGeometry>
                </mxCell>
                <mxCell id="25" value="xxxxxx" style="shape=partialRectangle;html=1;whiteSpace=wrap;connectable=0;fillColor=#e3c800;top=0;left=0;bottom=0;right=0;overflow=hidden;pointerEvents=1;fontColor=#000000;strokeColor=#B09500;perimeterSpacing=5;" vertex="1" parent="23">
                    <mxGeometry x="130" width="150" height="40" as="geometry">
                        <mxRectangle width="150" height="40" as="alternateBounds"/>
                    </mxGeometry>
                </mxCell>
                <mxCell id="26" value="" style="shape=partialRectangle;html=1;whiteSpace=wrap;connectable=0;fillColor=#e3c800;top=0;left=0;bottom=0;right=0;overflow=hidden;pointerEvents=1;fontColor=#000000;strokeColor=#B09500;perimeterSpacing=5;" vertex="1" parent="23">
                    <mxGeometry x="280" width="130" height="40" as="geometry">
                        <mxRectangle width="130" height="40" as="alternateBounds"/>
                    </mxGeometry>
                </mxCell>
                <mxCell id="27" value="Merkel Hash:69936ded24418931fdff5a4248985c8e" style="rounded=0;whiteSpace=wrap;html=1;fillColor=#60a917;fontColor=#ffffff;strokeColor=#2D7600;perimeterSpacing=2;" vertex="1" parent="1">
                    <mxGeometry x="200" y="240" width="410" height="40" as="geometry"/>
                </mxCell>
                <mxCell id="28" value="Previous Block Hash: bed128365216c019988915ed3add75fb" style="rounded=0;whiteSpace=wrap;html=1;fillColor=#60a917;fontColor=#ffffff;strokeColor=#2D7600;perimeterSpacing=2;" vertex="1" parent="1">
                    <mxGeometry x="200" y="200" width="410" height="40" as="geometry"/>
                </mxCell>
                <mxCell id="29" value="TimeStamp:1991234" style="rounded=0;whiteSpace=wrap;html=1;fillColor=#60a917;fontColor=#ffffff;strokeColor=#2D7600;perimeterSpacing=2;" vertex="1" parent="1">
                    <mxGeometry x="200" y="160" width="410" height="40" as="geometry"/>
                </mxCell>
                <mxCell id="30" value="Block Hash:&amp;nbsp; 14d199c7aecc4f88fd951b1de6ee5374" style="rounded=0;whiteSpace=wrap;html=1;fillColor=#60a917;fontColor=#ffffff;strokeColor=#2D7600;perimeterSpacing=2;" vertex="1" parent="1">
                    <mxGeometry x="200" y="120" width="410" height="40" as="geometry"/>
                </mxCell>
                <mxCell id="31" value="&lt;font style=&quot;font-size: 20px&quot; color=&quot;#ff3333&quot;&gt;Block Head&lt;/font&gt;" style="text;html=1;strokeColor=none;fillColor=none;align=center;verticalAlign=middle;whiteSpace=wrap;rounded=0;" vertex="1" parent="1">
                    <mxGeometry x="20" y="190" width="110" height="30" as="geometry"/>
                </mxCell>
                <mxCell id="32" value="&lt;font style=&quot;font-size: 20px&quot; color=&quot;#6666ff&quot;&gt;Block Body (json, xml ...)&lt;/font&gt;" style="text;html=1;strokeColor=none;fillColor=none;align=center;verticalAlign=middle;whiteSpace=wrap;rounded=0;" vertex="1" parent="1">
                    <mxGeometry x="5" y="360" width="140" height="40" as="geometry"/>
                </mxCell>
            </root>
        </mxGraphModel>
    </diagram>
</mxfile>